<?xml version="1.0" standalone="no"?>
<!DOCTYPE svg PUBLIC "-//W3C//DTD SVG 20010904//EN"
 "http://www.w3.org/TR/2001/REC-SVG-20010904/DTD/svg10.dtd">
<svg version="1.0" xmlns="http://www.w3.org/2000/svg"
 width="115.000000pt" height="93.000000pt" viewBox="0 0 115.000000 93.000000"
 preserveAspectRatio="xMidYMid meet">
<metadata>
Created by potrace 1.16, written by Peter Selinger 2001-2019
</metadata>
<g transform="translate(0.000000,93.000000) scale(0.100000,-0.100000)"
fill="#000000" stroke="none">
<path d="M564 826 c-3 -14 -4 -33 -1 -43 3 -14 7 -11 18 15 10 25 19 32 41 32
27 0 30 -5 43 -67 4 -21 21 -46 47 -68 l41 -34 -18 -145 c-13 -112 -15 -152
-6 -177 6 -18 11 -34 11 -35 0 -9 -32 -2 -74 16 l-46 21 -46 -21 c-58 -25 -79
-26 -69 -3 4 10 10 37 12 60 6 49 38 87 53 63 6 -8 10 -25 10 -37 0 -21 13
-37 22 -28 2 3 2 27 -2 55 -5 36 -2 56 8 71 30 44 -1 30 -56 -24 -61 -61 -94
-71 -112 -36 -10 18 -1 30 76 110 l88 89 28 -27 c19 -18 25 -30 18 -37 -5 -5
-10 -17 -10 -25 0 -11 8 -8 27 11 l27 27 -22 24 c-15 16 -22 34 -20 53 3 34
-15 50 -20 17 -2 -15 -8 -20 -18 -16 -10 4 -33 -12 -63 -41 -52 -51 -61 -49
-61 15 0 21 7 32 29 43 27 15 47 43 37 54 -3 2 -18 -6 -34 -19 -16 -13 -37
-28 -45 -34 -14 -8 -15 -19 -8 -70 l9 -60 -64 -67 c-35 -36 -64 -75 -64 -85 0
-25 -19 -43 -45 -43 -24 0 -205 -177 -205 -201 0 -16 60 -79 76 -79 19 0 194
185 194 206 0 26 30 54 57 54 11 0 28 9 38 20 26 29 36 25 24 -10 -6 -16 -23
-35 -37 -42 -30 -15 -39 -46 -44 -153 l-3 -70 215 0 215 0 3 33 c2 18 -4 46
-12 63 -11 22 -12 35 -5 47 15 24 -5 70 -34 81 -43 16 -46 54 -22 246 14 110
14 121 -1 130 -58 36 -70 54 -88 138 -6 25 -10 27 -56 27 -44 0 -50 -3 -56
-24z"/>
</g>
</svg>
